<?xml version="1.0" encoding="iso-8859-1"?>
<!-- Generator: Adobe Illustrator 19.0.0, SVG Export Plug-In . SVG Version: 6.00 Build 0)  -->
<svg version="1.1" id="Layer_1" xmlns="http://www.w3.org/2000/svg" xmlns:xlink="http://www.w3.org/1999/xlink" x="0px" y="0px"
	 viewBox="0 0 512 512" style="enable-background:new 0 0 512 512;" xml:space="preserve">
<g>
	<g>
		<path d="M256,0C166.783,0,94.199,72.583,94.199,161.801V350.2C94.199,439.417,166.783,512,256,512s161.801-72.583,161.801-161.801
			V161.801C417.801,72.583,345.217,0,256,0z M383.968,350.199c0,70.562-57.407,127.968-127.968,127.968
			s-127.968-57.406-127.968-127.968V161.801c0-70.562,57.407-127.968,127.968-127.968s127.968,57.406,127.968,127.968V350.199z"/>
	</g>
</g>
<g>
	<g>
		<path d="M279.921,256.793l70.973-70.973c3.189-3.189,4.973-7.52,4.955-12.03c-0.018-4.51-1.837-8.827-5.052-11.99l-82.934-81.593
			c-4.859-4.781-12.115-6.178-18.4-3.542c-6.287,2.634-10.379,8.785-10.379,15.602v123.687l-54.057-54.057
			c-6.605-6.606-17.317-6.605-23.923,0s-6.606,17.317,0,23.923l70.973,70.973l-70.973,70.973c-6.606,6.606-6.606,17.317,0,23.923
			c6.605,6.606,17.317,6.606,23.923,0l54.057-54.057v123.688c0,6.817,4.092,12.968,10.379,15.601
			c6.292,2.638,13.547,1.234,18.4-3.543l82.934-81.593c3.216-3.163,5.034-7.479,5.052-11.99c0.018-4.511-1.765-8.84-4.955-12.03
			L279.921,256.793z M272.916,132.641l41.996,41.318l-41.996,41.996V132.641z M272.916,380.947v-83.314l41.996,41.996
			L272.916,380.947z"/>
	</g>
</g>
<g>
</g>
<g>
</g>
<g>
</g>
<g>
</g>
<g>
</g>
<g>
</g>
<g>
</g>
<g>
</g>
<g>
</g>
<g>
</g>
<g>
</g>
<g>
</g>
<g>
</g>
<g>
</g>
<g>
</g>
</svg>
